# xmcd
#
# Track frame offsets:
#	150
#	27196
#	45290
#	67395
#	93444
#	117290
#	137599
#	152439
#	172499
#	195541
#
# Disc length: 2971 seconds
#
# Revision: 0
# Processed by: cddbd v1.5PL3 Copyright (c) Steve Scherf et al.
# Submitted via: dBpowerAMP V4.0
#
DISCID=860b990a
DTITLE=Breakaway - Breakaway
DYEAR=2004
DGENRE=Blues
TTITLE0=Driving With My Light Off
TTITLE1=Don't Take Advantage
TTITLE2=Everybody's Talkin
TTITLE3=The Bottle
TTITLE4=If You Don't Know by Now
TTITLE5=Live With Me
TTITLE6=Big Train
TTITLE7=Get Out and Love Somebody
TTITLE8=Down the Line
TTITLE9=Breakaway Part III
EXTD=
EXTT0=
EXTT1=
EXTT2=
EXTT3=
EXTT4=
EXTT5=
EXTT6=
EXTT7=
EXTT8=
EXTT9=
PLAYORDER=
